<!--?xml version="1.0" encoding="utf-8"?-->
<!-- Generator: Adobe Illustrator 15.1.0, SVG Export Plug-In . SVG Version: 6.00 Build 0)  -->

<svg version="1.1" id="_x32_" xmlns="http://www.w3.org/2000/svg" xmlns:xlink="http://www.w3.org/1999/xlink" x="0px" y="0px" width="512px" height="512px" viewBox="0 0 512 512" style="width: 256px; height: 256px; opacity: 1;" xml:space="preserve">
<style type="text/css">

	.st0{fill:#4B4B4B;}

</style>
<g>
	<path class="st0" d="M249.25,397.5c0,3.719,3.031,6.75,6.75,6.75s6.75-3.031,6.75-6.75s-3.031-6.75-6.75-6.75
		S249.25,393.781,249.25,397.5z" style="fill: rgb(75, 75, 75);"></path>
	<polygon class="st0" points="246.391,108.469 265.625,108.469 265.625,85.641 288.438,85.641 288.438,66.406 265.625,66.406 
		265.625,43.594 246.391,43.594 246.391,66.406 223.563,66.406 223.563,85.641 246.391,85.641 	" style="fill: rgb(75, 75, 75);"></polygon>
	<path class="st0" d="M414.391,386.063c-4.031-14.688-11.359-28.25-21.125-40.25c-4.703-5.766-9.984-11.172-15.734-16.188
		c2.188-2.781,4.281-5.656,6.266-8.594c16.578-24.547,26.297-54.203,26.328-86V235v-0.141v-0.016v-0.031
		c0-21.234-4.313-41.531-12.125-59.969c-7.906-18.734-19.438-35.531-33.656-49.609l29.484-46.063l0.063-0.141
		c1.109-1.797,2.016-3.75,2.609-5.813c0.609-2.078,0.875-4.156,0.922-6.141l0.016-0.172v-0.234v-0.016v-0.031
		c-0.016-3.188-0.656-5.969-1.406-8.25l0,0v-0.016L396,58.328v0.016c-0.719-2.172-1.719-4.094-2.813-5.719
		c-0.813-1.188-1.641-2.188-2.391-3.016l-0.016-0.016c-1.094-1.203-2.094-2.125-2.781-2.766v-0.016
		c-0.719-0.656-1.266-1.156-1.656-1.563l-0.078-0.094l-0.063-0.063l-0.172-0.156l0,0c-0.031-0.031-0.125-0.141-0.266-0.25
		c-2.031-1.938-13.469-12.375-33.984-22.75c-10.938-5.516-24.453-11-40.469-15.109S276.813,0,256,0s-39.297,2.719-55.313,6.828
		c-24.031,6.156-42.422,15.422-54.938,23.266c-11.313,7.078-17.813,12.969-19.422,14.5c-0.625,0.547-1.297,1.156-2.078,1.844
		l-0.031,0.031l-0.047,0.031l0.047-0.031c-1.203,1.094-2.75,2.563-4.313,4.563v0.016c-0.781,1.016-1.563,2.188-2.281,3.516
		s-1.328,2.781-1.813,4.313l0,0c-0.641,2.125-1.188,4.766-1.188,7.781c0,1.969,0.219,4.094,0.828,6.313
		c0.609,2.203,1.563,4.391,2.891,6.453l0.094,0.172h0.016l29.203,45.641c-7.219,7.141-13.75,14.984-19.438,23.422
		c-16.625,24.563-26.344,54.281-26.344,86.125c0,0,0,0.078,0,0.203c0.031,21.188,4.328,41.453,12.125,59.859
		c5.297,12.531,12.219,24.219,20.469,34.781c-9.188,8-17.125,16.984-23.484,26.844c-5.328,8.25-9.563,17.125-12.453,26.469
		s-4.438,19.141-4.438,29.188c0,7.266,1.406,14.375,3.938,21.109c2.219,5.891,5.25,11.5,8.969,16.797l0,0
		c6.5,9.266,15.016,17.641,25.063,25.094c15.063,11.156,33.656,20.281,54.656,26.719l0,0C207.75,508.281,231.219,512,256,512
		c21.594,0,42.172-2.813,61-7.797c14.125-3.734,27.281-8.672,39.156-14.594c8.891-4.453,17.063-9.453,24.406-14.953
		c11-8.25,20.141-17.609,26.719-28.063v-0.016c3.313-5.234,5.953-10.75,7.781-16.531c1.844-5.766,2.844-11.797,2.844-17.922
		C417.906,403.188,416.688,394.453,414.391,386.063z M139.031,66.5c0.031-0.094,0.063-0.25,0.109-0.406
		c0.016-0.031,0.063-0.109,0.172-0.25c0.188-0.234,0.563-0.625,1.125-1.141c0.578-0.516,1.344-1.203,2.25-1.984l0.156-0.156
		L143,62.422l0.016-0.016v-0.016c0.422-0.391,10.391-9.828,29.234-19.172c9.531-4.719,21.313-9.438,35.281-12.938
		C221.5,26.75,237.656,24.406,256,24.406c18.688,0,35.094,2.438,49.25,6.063c21.219,5.438,37.313,13.594,48.063,20.313
		c5.359,3.344,9.375,6.344,12,8.469c1.313,1.063,2.281,1.891,2.906,2.438c0.297,0.266,0.516,0.469,0.641,0.594l0.109,0.094
		c0.813,0.844,1.563,1.531,2.156,2.094c0.969,0.906,1.578,1.484,1.75,1.719l0.031,0.031c0.031,0.094,0.063,0.188,0.078,0.25
		l-44.141,68.953H183.156L139.031,66.5z M126.281,234.844c0-2.797,0.094-5.563,0.281-8.313
		c26.563-1.438,114.125-10.266,161.391-63.906c14.203,25.625,74.859,60.141,97.75,69.781c0.016,0.813,0.016,1.625,0.016,2.438
		c0,17.938-3.625,34.969-10.188,50.484c-9.844,23.266-26.313,43.094-47,57.078c-20.719,14-45.625,22.156-72.531,22.156
		c-17.938,0-34.969-3.625-50.5-10.188c-23.25-9.844-43.078-26.313-57.063-47.016C134.438,286.641,126.281,261.734,126.281,234.844z
		 M300.641,376.438l-35.234,42.797L256,430.656l-9.391-11.422l-35.25-42.797c14.109,4.438,29.109,6.844,44.641,6.844
		S286.547,380.875,300.641,376.438z M391.125,424.672c-1.406,3.734-3.438,7.547-6.125,11.359
		c-4.656,6.688-11.281,13.328-19.578,19.469c-12.453,9.234-28.625,17.313-47.281,23.016c-18.672,5.719-39.797,9.078-62.141,9.078
		c-19.469,0-37.984-2.563-54.781-6.984c-12.578-3.328-24.188-7.703-34.453-12.828c-7.703-3.844-14.641-8.125-20.688-12.656
		c-9.078-6.781-16.094-14.188-20.703-21.531c-2.313-3.688-4.047-7.344-5.188-10.922c-1.125-3.578-1.688-7.094-1.688-10.547
		c0-6.703,0.906-13.25,2.656-19.594c3.031-11.109,8.656-21.656,16.5-31.313c5.031-6.156,10.984-11.938,17.734-17.25
		c5.516,5.094,11.391,9.75,17.609,13.953c4.719,3.188,9.641,6.109,14.719,8.75l49.594,60.219L256,449.578l18.688-22.688
		l49.594-60.219c11.781-6.125,22.656-13.766,32.328-22.672c9.766,7.625,17.859,16.328,23.922,25.719
		c4.188,6.5,7.438,13.344,9.625,20.438s3.344,14.406,3.344,21.969C393.5,416.219,392.719,420.391,391.125,424.672z" style="fill: rgb(75, 75, 75);"></path>
</g>
</svg>
